<svg width="25" height="25" viewBox="0 0 25 25" fill="none" xmlns="http://www.w3.org/2000/svg">
<path fill-rule="evenodd" clip-rule="evenodd" d="M12.5 25C19.4036 25 25 19.4036 25 12.5C25 5.59644 19.4036 0 12.5 0C5.59644 0 0 5.59644 0 12.5C0 19.4036 5.59644 25 12.5 25ZM20.8517 17.0879C21.3437 16.3922 20.5175 15.2977 19.747 15.3719C17.0826 15.6223 14.3348 14.7319 12.3017 12.6912C10.2593 10.6598 9.36813 7.90488 9.61878 5.25199C9.69305 4.4821 8.59761 3.65655 7.90135 4.14817C7.4836 4.445 7.0937 4.77893 6.72236 5.14996C3.09255 8.76753 3.09255 14.6484 6.72236 18.266C10.3429 21.9113 16.2193 21.9113 19.8491 18.266C20.239 17.8949 20.5546 17.5053 20.8517 17.0879Z" fill="#646363"/>
</svg>
