<svg width="25" height="25" viewBox="0 0 25 25" fill="none" xmlns="http://www.w3.org/2000/svg">
<path fill-rule="evenodd" clip-rule="evenodd" d="M12.5 25C19.4036 25 25 19.4036 25 12.5C25 5.59644 19.4036 0 12.5 0C5.59644 0 0 5.59644 0 12.5C0 19.4036 5.59644 25 12.5 25ZM7.06 19.0594L5.97045 17.9648L7.35364 16.5676L8.45091 17.6699L7.06 19.0594ZM13.2727 18.71V21H11.7273V18.71H13.2727ZM9.2216 9.20663C10.0911 8.33317 11.2704 7.84247 12.5 7.84247C15.0577 7.84247 17.1364 9.92283 17.1364 12.5C17.1364 13.7353 16.6479 14.9199 15.7784 15.7934C14.9089 16.6668 13.7296 17.1575 12.5 17.1575C11.2704 17.1575 10.0911 16.6668 9.2216 15.7934C8.35211 14.9199 7.86364 13.7353 7.86364 12.5C7.86364 11.2647 8.35211 10.0801 9.2216 9.20663ZM21 13.2763H18.6818V11.7237H21V13.2763ZM17.94 19.0594L16.5491 17.6699L17.6464 16.5676L19.0295 17.9648L17.94 19.0594ZM17.94 5.94064L19.0295 7.03516L17.6464 8.43242L16.5491 7.33014L17.94 5.94064ZM11.7273 6.28995V4H13.2727V6.28995H11.7273ZM4 11.7237H6.31818V13.2763H4V11.7237ZM7.06 5.94064L8.45091 7.33014L7.35364 8.43242L5.97045 7.03516L7.06 5.94064Z" fill="#646363"/>
</svg>
